<svg xmlns="http://www.w3.org/2000/svg" viewBox="0 0 100 100">
    <circle cx="50" cy="50" r="48" fill="#e2e8f0" stroke="#94a3b8" stroke-width="4"/>
    <circle cx="50" cy="50" r="40" fill="none" stroke="#cbd5e1" stroke-width="1" stroke-dasharray="4,4"/>
    <!-- Astronaut Helmet for Heads -->
    <path d="M50 25 C35 25 25 35 25 50 C25 65 35 75 50 75 C65 75 75 65 75 50 C75 35 65 25 50 25 Z" fill="#ffffff" stroke="#475569" stroke-width="3"/>
    <path d="M30 45 C30 35 40 30 50 30 C60 30 70 35 70 45 L70 55 C70 65 60 70 50 70 C40 70 30 65 30 55 Z" fill="#0f172a" stroke="#475569" stroke-width="2"/>
    <path d="M35 50 C35 45 42 40 50 40 C58 40 65 45 65 50 L65 55 C65 60 58 65 50 65 C42 65 35 60 35 55 Z" fill="#38bdf8"/>
    <text x="50" y="88" font-family="sans-serif" font-size="12" font-weight="bold" fill="#334155" text-anchor="middle" letter-spacing="2">HEADS</text>
</svg>
